#!OML:ASF \\sashay\E\Suitcase\Project 1\Capture day 1\Session 1\Male1.ASF
:FULLY-SPECIFIED
:DEGREES
1
root 0.934197 17.485 -35.0315 6.57809 1.82218 -2.0364
lowerback 1.02938 -2.27806 2.92522
upperback -1.5565 -2.9341 2.26016
thorax -2.20357 -1.49331 0.77022
lowerneck -18.4076 -0.256296 -2.05847
upperneck 15.0692 0.131952 0.372188
head 7.66954 -0.0217162 0.474075
rclavicle 3.08862e-014 -1.07344e-014
rhumerus -39.8512 -24.0938 -64.9254
rradius 20.7001
rwrist -3.49347
rhand -18.0749 19.0565
rfingers 7.12502
rthumb 8.19808 -10.7645
lclavicle 3.08862e-014 -1.07344e-014
lhumerus -38.7801 8.03491 81.6915
lradius 33.5792
lwrist -5.76667
lhand -2.12695 41.0336
lfingers 7.12502
lthumb 23.5516 69.6116
rfemur -12.1204 1.57154 26.04
rtibia 26.6674
rfoot -20.7503 -6.40359
rtoes 1.72698
lfemur -14.8297 -7.0144 -19.3952
ltibia 30.8397
lfoot -20.5675 4.85785
ltoes 4.14066
2
root 0.934785 17.4866 -35.0359 6.62305 1.69505 -1.99476
lowerback 1.02302 -2.27076 2.88559
upperback -1.5815 -2.92496 2.24796
thorax -2.22422 -1.48853 0.779912
lowerneck -18.4761 -0.268601 -2.26734
upperneck 15.3909 0.144834 0.525191
head 7.78778 -0.0148768 0.561268
rclavicle -6.75868e-015 9.14409e-015
rhumerus -39.8776 -24.0605 -64.9455
rradius 20.7485
rwrist -3.46141
rhand -17.7737 18.788
rfingers 7.12502
rthumb 8.48873 -11.0214
lclavicle -6.75868e-015 9.14409e-015
lhumerus -38.8965 8.10335 81.6841
lradius 33.6746
lwrist -5.88947
lhand -2.19487 41.0106
lfingers 7.12502
lthumb 23.4865 69.5969
rfemur -12.1311 1.82227 25.9781
rtibia 26.5631
rfoot -20.6022 -6.62503
rtoes 3.05823
lfemur -14.8831 -7.08962 -19.4449
ltibia 30.8476
lfoot -20.5034 4.844
ltoes 5.19901
3
root 0.933375 17.4857 -35.0391 6.47969 1.68914 -2.19183
lowerback 1.2401 -2.29754 3.08618
upperback -1.63612 -2.94283 2.29798
thorax -2.41063 -1.50192 0.732098
lowerneck -17.9466 -0.3239 -1.63784
upperneck 15.1491 0.0475167 -0.311448
head 7.61885 -0.105743 0.169576
rclavicle 3.84648e-014 -3.10104e-014
rhumerus -39.8917 -24.0657 -64.9561
rradius 20.6403
rwrist -3.36452
rhand -17.9503 18.9211
rfingers 7.12502
rthumb 8.31826 -10.8951
lclavicle 3.84648e-014 -3.10104e-014
lhumerus -39.1332 8.11872 81.6357
lradius 33.8026
lwrist -5.77237
lhand -2.02897 41.2179
lfingers 7.12502
lthumb 23.6456 69.7837
rfemur -12.034 1.96758 26.1996
rtibia 26.6825
rfoot -20.8092 -6.6827
rtoes 3.16625
lfemur -14.7028 -6.909 -19.2443
ltibia 30.7746
lfoot -20.6319 4.8654
ltoes 3.60674
4
root 0.937426 17.4851 -35.0435 6.53577 1.65128 -1.83574
lowerback 1.24488 -2.29541 2.77576
upperback -1.68686 -2.94819 2.18485
thorax -2.45525 -1.50087 0.790446
lowerneck -18.0377 -0.316851 -2.07751
upperneck 15.1293 0.0482267 0.357998
head 7.62717 -0.064692 0.462589
rclavicle -4.52235e-015 -4.37326e-015
rhumerus -39.9514 -23.757 -65.1536
rradius 20.8281
rwrist -3.76279
rhand -17.4569 19.1719
rfingers 7.12502
rthumb 8.79443 -10.6249
lclavicle -4.52235e-015 -4.37326e-015
lhumerus -39.2627 8.06408 81.6355
lradius 33.9035
lwrist -5.77668
lhand -1.6025 41.2424
lfingers 7.12502
lthumb 24.0546 69.7548
rfemur -12.1431 1.63582 25.7754
rtibia 26.7409
rfoot -20.7919 -6.31198
rtoes 2.65857
lfemur -14.7304 -7.05037 -19.6507
ltibia 30.7214
lfoot -20.5369 4.79057
ltoes 4.96044
5
root 0.93763 17.478 -35.0427 6.54532 1.62905 -1.77846
lowerback 1.08847 -2.25303 2.64167
upperback -1.61367 -2.90383 2.19494
thorax -2.28411 -1.475 0.864326
lowerneck -17.9673 -0.343364 -1.61041
upperneck 15.0925 0.0140811 -0.312866
head 7.60386 -0.119798 0.160722
rclavicle 9.34288e-015 3.18055e-015
rhumerus -39.7291 -23.8511 -65.173
rradius 20.6567
rwrist -3.94798
rhand -17.6172 19.1161
rfingers 7.12502
rthumb 8.63977 -10.6871
lclavicle 9.34288e-015 3.18055e-015
lhumerus -39.0108 8.04954 81.7504
lradius 33.7082
lwrist -5.94592
lhand -1.71218 41.3659
lfingers 7.12502
lthumb 23.9494 69.8922
rfemur -12.1771 1.48144 25.71
rtibia 26.7912
rfoot -20.7056 -6.20662
rtoes 2.47949
lfemur -14.7166 -7.03242 -19.7312
ltibia 30.699
lfoot -20.4898 5.0713
ltoes 4.17386
6
root 0.940063 17.478 -35.0478 6.55261 1.62079 -1.85722
lowerback 1.20889 -2.28437 2.82164
upperback -1.75144 -2.93208 2.17317
thorax -2.50442 -1.49447 0.75278
lowerneck -17.8613 -0.240728 -2.05654
upperneck 15.2979 0.141106 0.366261
head 7.65147 -0.0195984 0.473006
rclavicle -3.39176e-014 -4.37326e-015
rhumerus -39.9168 -23.6611 -65.2846
rradius 20.8629
rwrist -3.75401
rhand -17.5527 18.593
rfingers 7.12502
rthumb 8.70197 -11.2076
lclavicle -3.39176e-014 -4.37326e-015
lhumerus -39.3482 7.95619 81.6746
lradius 33.8421
lwrist -5.81006
lhand -1.75329 41.2482
lfingers 7.12502
lthumb 23.91 69.7796
rfemur -12.2132 1.50915 25.797
rtibia 26.8125
rfoot -20.7988 -6.22734
rtoes 2.39736
lfemur -14.7679 -7.12873 -19.633
ltibia 30.7127
lfoot -20.4292 4.9554
ltoes 4.93897
7
root 0.939478 17.4784 -35.047 6.47134 1.56834 -2.01251
lowerback 1.12847 -2.24265 2.89109
upperback -1.64089 -2.88038 2.25309
thorax -2.3443 -1.46746 0.787242
lowerneck -18.0012 -0.292797 -2.00637
upperneck 15.3386 0.066178 0.335914
head 7.69004 -0.0555499 0.446196
rclavicle -2.3059e-014 -1.07344e-014
rhumerus -39.7647 -23.7516 -65.3495
rradius 20.9626
rwrist -4.0083
rhand -17.2584 18.6979
rfingers 7.12502
rthumb 8.98598 -11.0907
lclavicle -2.3059e-014 -1.07344e-014
lhumerus -39.165 8.01214 81.758
lradius 33.7679
lwrist -5.9392
lhand -1.37576 41.7067
lfingers 7.12502
lthumb 24.272 70.1902
rfemur -12.1181 1.70853 25.9524
rtibia 26.7867
rfoot -20.7709 -6.32015
rtoes 2.77957
lfemur -14.6891 -7.03261 -19.4852
ltibia 30.7572
lfoot -20.577 5.21795
ltoes 4.04338
8
root 0.935779 17.4768 -35.0537 6.47686 1.53845 -2.27019
lowerback 1.16449 -2.31596 3.21517
upperback -1.65621 -2.96784 2.27341
thorax -2.39719 -1.51692 0.633376
lowerneck -17.761 -0.28134 -1.95362
upperneck 15.1126 0.0560464 0.36489
head 7.57392 -0.0529746 0.44545
rclavicle 2.62147e-014 -2.90226e-014
rhumerus -39.6915 -23.592 -65.6087
rradius 20.911
rwrist -4.05404
rhand -17.3268 18.8647
rfingers 7.12502
rthumb 8.91997 -10.9268
lclavicle 2.62147e-014 -2.90226e-014
lhumerus -39.2515 8.11685 81.569
lradius 33.76
lwrist -6.00161
lhand -1.40027 41.3422
lfingers 7.12502
lthumb 24.2485 69.8289
rfemur -12.1175 1.74244 26.2641
rtibia 26.7244
rfoot -20.728 -6.35133
rtoes 2.36897
lfemur -14.7571 -7.04105 -19.1738
ltibia 30.7994
lfoot -20.4499 5.03725
ltoes 4.6705
9
root 0.936485 17.4758 -35.0534 6.45929 1.65463 -2.07892
lowerback 1.14388 -2.3126 2.94127
upperback -1.67424 -2.97017 2.27815
thorax -2.38947 -1.5134 0.789921
lowerneck -17.7912 -0.317418 -2.08364
upperneck 15.294 0.0140932 0.51201
head 7.63957 -0.0672345 0.510809
rclavicle 2.93207e-015 -1.27222e-014
rhumerus -39.7335 -23.7854 -65.431
rradius 20.8663
rwrist -3.97141
rhand -17.1775 18.805
rfingers 7.12502
rthumb 9.06404 -10.9803
lclavicle 2.93207e-015 -1.27222e-014
lhumerus -39.241 7.96901 81.7959
lradius 33.8163
lwrist -6.00979
lhand -1.38394 41.5754
lfingers 7.12502
lthumb 24.2642 70.06
rfemur -12.084 1.67928 26.0551
rtibia 26.7261
rfoot -20.7857 -6.35759
rtoes 2.51529
lfemur -14.7401 -7.00434 -19.3913
ltibia 30.8054
lfoot -20.5107 5.04063
ltoes 3.12832
10
root 0.940026 17.4809 -35.0593 6.53745 1.49546 -1.96782
lowerback 1.10645 -2.28797 2.88165
upperback -1.69566 -2.94081 2.22783
thorax -2.3897 -1.49835 0.769359
lowerneck -17.8198 -0.325671 -2.0992
upperneck 15.2943 0.0170139 0.462589
head 7.64464 -0.07168 0.497352
rclavicle 1.03368e-014 -1.98785e-015
rhumerus -39.6882 -23.7644 -65.4924
rradius 20.8367
rwrist -3.93212
rhand -16.6362 19.2323
rfingers 7.12502
rthumb 9.58638 -10.5296
lclavicle 1.03368e-014 -1.98785e-015
lhumerus -39.2911 8.09103 81.6943
lradius 33.8662
lwrist -6.02183
lhand -1.16971 41.4826
lfingers 7.12502
lthumb 24.4695 69.9396
rfemur -12.1846 1.79891 25.8944
rtibia 26.6965
rfoot -20.5751 -6.38448
rtoes 3.21736
lfemur -14.8566 -7.0536 -19.5211
ltibia 30.8596
lfoot -20.4606 5.01994
ltoes 4.97412
11
root 0.939129 17.4764 -35.0585 6.41776 1.43011 -1.93669
lowerback 1.18109 -2.30856 2.86124
upperback -1.65653 -2.96727 2.19837
thorax -2.39207 -1.51122 0.753632
lowerneck -17.6013 -0.284668 -1.78179
upperneck 15.1437 0.0486246 0.124506
head 7.55712 -0.0703306 0.337264
rclavicle -3.83654e-014 2.78299e-014
rhumerus -39.6262 -23.5899 -65.7146
rradius 20.9127
rwrist -4.0452
rhand -16.7912 18.9232
rfingers 7.12502
rthumb 9.43684 -10.8455
lclavicle -3.83654e-014 2.78299e-014
lhumerus -39.2914 8.01689 81.7209
lradius 33.8982
lwrist -6.00884
lhand -1.39702 41.9639
lfingers 7.12502
lthumb 24.2516 70.4502
rfemur -12.0742 1.52593 25.8461
rtibia 26.7342
rfoot -20.687 -6.02355
rtoes 3.35165
lfemur -14.6877 -6.95987 -19.598
ltibia 30.8343
lfoot -20.4892 5.26186
ltoes 3.33579
12
root 0.935497 17.4765 -35.0716 6.46671 1.24272 -2.36225
lowerback 1.23385 -2.27888 3.25441
upperback -1.68083 -2.91241 2.30853
thorax -2.46106 -1.49033 0.649576
lowerneck -17.5476 -0.245507 -1.69848
upperneck 15.0565 0.103265 -0.00528352
head 7.51874 -0.0515416 0.287048
rclavicle 2.56929e-014 1.59028e-015
rhumerus -39.5942 -23.6424 -65.7569
rradius 20.8675
rwrist -3.8117
rhand -16.5784 19.0817
rfingers 7.12502
rthumb 9.64216 -10.6776
lclavicle 2.56929e-014 1.59028e-015
lhumerus -39.3171 7.99973 81.6798
lradius 33.9509
lwrist -5.79235
lhand -1.46068 41.8854
lfingers 7.12502
lthumb 24.1906 70.3798
rfemur -12.207 1.9611 26.3342
rtibia 26.7535
rfoot -20.5326 -6.35745
rtoes 3.73142
lfemur -14.8095 -6.8403 -19.0922
ltibia 30.828
lfoot -20.4767 5.0836
ltoes 4.37407
13
root 0.937374 17.4785 -35.0695 6.45662 1.32361 -2.08738
lowerback 1.23021 -2.2898 2.99936
upperback -1.68358 -2.93507 2.22855
thorax -2.45293 -1.49785 0.709863
lowerneck -17.8318 -0.260258 -1.79324
upperneck 15.4226 0.0917802 0.121069
head 7.68868 -0.0526799 0.34339
rclavicle 1.62755e-014 -2.5842e-014
rhumerus -39.6582 -23.6862 -65.7494
rradius 20.9346
rwrist -3.73717
rhand -16.7212 19.1044
rfingers 7.12502
rthumb 9.50437 -10.6613
lclavicle 1.62755e-014 -2.5842e-014
lhumerus -39.2738 7.968 81.7112
lradius 33.927
lwrist -5.98343
lhand -1.43877 41.6404
lfingers 7.12502
lthumb 24.2116 70.132
rfemur -12.205 1.75949 26.0137
rtibia 26.8132
rfoot -20.6759 -6.10247
rtoes 3.45237
lfemur -14.7557 -7.0017 -19.4108
ltibia 30.7953
lfoot -20.5741 5.39466
ltoes 3.28869
14
root 0.9423 17.479 -35.0725 6.48018 1.32618 -1.98227
lowerback 1.24684 -2.30219 2.94176
upperback -1.7655 -2.9501 2.20149
thorax -2.54528 -1.50575 0.717984
lowerneck -17.7135 -0.277658 -1.80109
upperneck 15.5068 0.0833213 0.0403092
head 7.69647 -0.0658092 0.317057
rclavicle -5.93869e-014 4.77083e-015
rhumerus -39.6822 -23.6138 -65.7415
rradius 20.8346
rwrist -3.78632
rhand -16.7549 19.0374
rfingers 7.12502
rthumb 9.47188 -10.7298
lclavicle -5.93869e-014 4.77083e-015
lhumerus -39.4332 7.98245 81.7255
lradius 34.0002
lwrist -5.85602
lhand -1.5752 41.6815
lfingers 7.12502
lthumb 24.0808 70.1904
rfemur -12.2517 1.67154 25.8768
rtibia 26.8131
rfoot -20.7038 -6.09661
rtoes 3.42796
lfemur -14.7899 -6.99013 -19.5365
ltibia 30.7953
lfoot -20.4846 5.03757
ltoes 4.75877
